HIERARCHY
ROOT Hips
{
  OFFSET -125.086 92.215 135.881
  CHANNELS 6 Xposition Yposition Zposition Zrotation Xrotation Yrotation
  JOINT LeftUpLeg
  {
    OFFSET 8.64259 1.95398 -2.38835
    CHANNELS 3 Zrotation Xrotation Yrotation
    JOINT LeftLeg
    {
      OFFSET 43.7702 0 0
      CHANNELS 3 Zrotation Xrotation Yrotation
      JOINT LeftFoot
      {
        OFFSET 40.6238 0 0
        CHANNELS 3 Zrotation Xrotation Yrotation
        JOINT LeftToeBase
        {
          OFFSET 12.7242 0 0
          CHANNELS 3 Zrotation Xrotation Yrotation
          End Site
          {
            OFFSET 0 0 0
          }
        }
      }
    }
  }
  JOINT RightUpLeg
  {
    OFFSET -8.2249 1.95398 -2.59336
    CHANNELS 3 Zrotation Xrotation Yrotation
    JOINT RightLeg
    {
      OFFSET 43.5653 0 0
      CHANNELS 3 Zrotation Xrotation Yrotation
      JOINT RightFoot
      {
        OFFSET 40.6238 0 0
        CHANNELS 3 Zrotation Xrotation Yrotation
        JOINT RightToeBase
        {
          OFFSET 12.7242 0 0
          CHANNELS 3 Zrotation Xrotation Yrotation
          End Site
          {
            OFFSET 0 0 0
          }
        }
      }
    }
  }
  JOINT Spine
  {
    OFFSET 0.165834 0.87714 6.61349
    CHANNELS 3 Zrotation Xrotation Yrotation
    JOINT Spine1
    {
      OFFSET 7.38963 1.71661e-005 0
      CHANNELS 3 Zrotation Xrotation Yrotation
      JOINT Spine2
      {
        OFFSET 11.9445 1.14441e-005 0
        CHANNELS 3 Zrotation Xrotation Yrotation
        JOINT Spine3
        {
          OFFSET 14.7254 4.19617e-005 0
          CHANNELS 3 Zrotation Xrotation Yrotation
          JOINT Spine4
          {
            OFFSET 10.9679 0 0
            CHANNELS 3 Zrotation Xrotation Yrotation
            JOINT RightShoulder
            {
              OFFSET 2.46616 -1.6653 3.69651
              CHANNELS 3 Zrotation Xrotation Yrotation
              JOINT RightArm
              {
                OFFSET 13.0012 0 0
                CHANNELS 3 Zrotation Xrotation Yrotation
                JOINT RightForeArm
                {
                  OFFSET 28.7848 1.52588e-005 0
                  CHANNELS 3 Zrotation Xrotation Yrotation
                  JOINT RightHand
                  {
                    OFFSET 26.5688 1.52588e-005 0
                    CHANNELS 3 Zrotation Xrotation Yrotation
                    End Site
                    {
                      OFFSET 0 0 0
                    }
                  }
                }
              }
            }
            JOINT LeftShoulder
            {
              OFFSET 2.38034 -1.29275 -3.7523
              CHANNELS 3 Zrotation Xrotation Yrotation
              JOINT LeftArm
              {
                OFFSET 16.3182 6.10352e-005 0
                CHANNELS 3 Zrotation Xrotation Yrotation
                JOINT LeftForeArm
                {
                  OFFSET 27.0901 0 0
                  CHANNELS 3 Zrotation Xrotation Yrotation
                  JOINT LeftHand
                  {
                    OFFSET 24.5451 1.52588e-005 0
                    CHANNELS 3 Zrotation Xrotation Yrotation
                    End Site
                    {
                      OFFSET 0 0 0
                    }
                  }
                }
              }
            }
            JOINT Neck
            {
              OFFSET 5.0226 -0.0266342 0
              CHANNELS 3 Zrotation Xrotation Yrotation
              JOINT Head
              {
                OFFSET 6.69363 2.86102e-005 0
                CHANNELS 3 Zrotation Xrotation Yrotation
                End Site
                {
                  OFFSET 0 0 0
                }
              }
            }
          }
        }
      }
    }
  }
}
MOTION
Frames:	12
Frame Time:	0.0416667
-303.555 58.075 331.331 -105.4 -56.9585 -113.832 149.288 59.1867 105.145 -118.733 25.3315 -8.00201 80.4569 25.3709 12.9369 41.3089 -0.227225 -98.936 -173.901 49.5338 60.4881 -114.634 -0.000278699 1.77382 100.513 1.22015 22.0265 37.6098 -1.22511 -7.71165 -2.64674 7.88126 -88.5796 11.1763 -4.60796 3.27781 -0.491072 -4.45933 3.47752 -23.08 -5.37951 1.73901 -3.06733 -5.3795 1.739 79.7447 -31.3864 -125.801 52.6456 26.4591 56.8256 157.504 -13.7625 -48.3183 2.31439 -1.94238 -71.3467 -96.2457 -44.7713 67.4611 -22.162 -34.1342 61.0661 55.581 17.2227 -74.4641 23.1065 -5.48313 -27.905 -72.3397 39.1506 14.5325 126.138 58.5298 -1.03664 
-304.408 57.6718 332.329 -105.649 -56.9014 -114.402 147.768 60.5272 106.695 -116.481 26.4699 -8.26035 77.6552 23.8865 12.724 50.9654 -14.2196 -104.174 -174.306 48.4526 60.461 -115.514 -1.21713 1.72246 101.865 0.237993 20.263 39.0346 -1.54686 -7.36005 -2.63153 7.8619 -88.553 11.2152 -4.56469 3.32918 -0.452553 -4.41381 3.5269 -23.0395 -5.35366 1.80114 -3.0268 -5.35364 1.80114 79.5379 -32.0644 -125.759 52.2191 26.3115 57.386 156.833 -14.9843 -48.165 1.87894 -1.6385 -70.6458 -96.4042 -44.9248 67.2686 -22.2261 -33.7601 58.3677 56.7497 17.3853 -75.2461 23.7294 -5.76241 -28.4939 -72.6768 38.6008 14.4199 125.94 58.3583 -0.595594 
-306.641 56.5268 334.958 -106.309 -56.7274 -115.943 144.305 63.3111 110.055 -110.064 28.9003 -8.75148 70.6751 19.5399 11.8496 113.226 -51.9296 -58.3815 -175.443 45.4183 60.3822 -117.684 -5.24855 1.59583 105.134 -3.21968 14.8195 43.3545 -2.48668 -6.88 -2.59166 7.81407 -88.4846 11.3105 -4.4516 3.46052 -0.357927 -4.29511 3.6531 -22.9396 -5.2853 1.96075 -2.92696 -5.2853 1.96075 79.0277 -33.8131 -125.613 51.1566 25.9096 58.8045 155.06 -18.2335 -47.9167 0.820215 -0.926189 -68.9127 -96.8054 -45.336 66.7928 -22.5352 -32.7277 51.2695 58.8963 18.0412 -76.5223 24.8197 -6.42953 -30.1591 -73.5177 37.0959 14.1698 125.441 57.7686 0.524198 
-309.75 54.7293 338.688 -107.234 -56.4328 -118.166 141.43 65.485 112.342 -100.097 31.1839 -8.7871 61.8831 12.85 9.77768 161.273 -10.5557 4.14024 -177.177 40.5572 60.1196 -120.3 -12.4836 1.43603 108.633 -9.73204 6.04294 50.0551 -3.99327 -7.36034 -2.53655 7.75451 -88.3979 11.429 -4.29931 3.62567 -0.240458 -4.13568 3.8113 -22.8152 -5.18968 2.16449 -2.80252 -5.18967 2.16449 78.4029 -36.1511 -125.331 49.817 25.3256 60.6588 152.583 -22.7961 -47.9247 -0.445572 -0.132337 -66.7256 -97.3271 -45.9393 66.2064 -23.2009 -31.2463 41.6766 59.9159 19.5525 -76.7487 25.3735 -7.14348 -32.3907 -74.6417 34.8437 14.0032 124.765 56.6748 2.03021 
-313.254 52.553 343.01 -108.272 -56.0232 -120.775 141.573 65.7097 110.972 -87.4718 32.7732 -7.6752 52.7434 4.99871 6.1861 154.688 14.5391 20.133 -179.317 34.0471 59.3837 -122.45 -21.4912 1.23367 110.802 -17.9557 -3.84517 57.1182 -5.84305 -9.00508 -2.48268 7.70128 -88.3211 11.5343 -4.15405 3.7706 -0.135997 -3.98422 3.94967 -22.7042 -5.09469 2.34679 -2.69153 -5.09467 2.34681 77.8439 -38.5184 -124.941 48.5478 24.6724 62.5386 149.743 -27.9316 -48.4241 -1.62037 0.543695 -64.5143 -97.8181 -46.6864 65.7274 -24.2499 -29.6444 31.7891 59.1322 21.8617 -75.409 25.2937 -7.58325 -34.1561 -75.8228 32.0255 14.1882 124.031 55.0613 3.66327 
-316.671 50.4897 347.322 -109.291 -55.5163 -123.509 144.738 63.3399 106.17 -72.8096 33.9372 -5.27995 43.4476 -2.74128 1.04508 146.64 24.4882 29.5163 178.34 26.8051 58.0413 -123.459 -29.5909 0.926535 111.437 -25.2843 -12.2069 62.8517 -7.61107 -10.747 -2.4589 7.67592 -88.282 11.5845 -4.08736 3.84491 -0.0861832 -3.9143 4.02096 -22.6512 -5.05339 2.43792 -2.63857 -5.05339 2.43793 77.4784 -40.2541 -124.597 47.6774 24.1043 64.0526 146.761 -32.9949 -49.4944 -2.58292 1.04894 -62.5255 -98.0691 -47.5513 65.6596 -25.8599 -28.2435 23.131 57.2228 24.4674 -72.8016 25.0578 -7.61165 -34.5209 -76.8007 28.7706 15.0832 123.388 52.9423 5.17977 
-319.453 49.108 350.87 -110.188 -54.9406 -126.157 148.836 58.1357 100.481 -56.0202 35.1433 -2.32873 33.5039 -9.36519 -5.52577 139.306 29.9296 37.0165 176.186 20.6659 56.1744 -123.301 -35.0176 0.455507 110.946 -29.9032 -17.8349 67.0886 -8.93783 -11.5574 -2.5113 7.70514 -88.3002 11.5281 -4.20131 3.81691 -0.142227 -4.02939 3.99799 -22.7111 -5.15364 2.37673 -2.69847 -5.15364 2.37672 77.3583 -40.5841 -124.613 47.5879 23.7797 64.7815 143.754 -37.4735 -51.1109 -3.32553 1.40569 -60.89 -97.7732 -48.542 66.4496 -28.2997 -27.1797 16.2073 54.7812 27.0813 -69.0674 25.1119 -7.12191 -32.5952 -77.2186 25.1711 17.1643 123.017 50.2918 6.31264 
-320.967 48.9739 352.785 -110.894 -54.3287 -128.556 152.299 50.3059 95.874 -36.6031 36.5741 -0.163975 22.428 -14.3059 -13.1146 130.919 33.5249 44.743 174.95 17.7255 54.0338 -122.633 -37.1871 -0.189699 109.402 -31.0051 -20.6634 70.1944 -9.63188 -10.9942 -2.70151 7.8192 -88.3725 11.3066 -4.61802 3.70037 -0.361966 -4.45079 3.9 -22.9457 -5.51599 2.13939 -2.93306 -5.516 2.13937 77.5124 -38.7016 -125.381 48.8034 23.7869 64.2087 140.821 -40.9465 -53.1904 -3.88779 1.65947 -59.6854 -96.4992 -49.7294 68.7301 -31.6585 -26.4096 11.0952 50.8129 29.826 -63.0284 25.5835 -5.6346 -26.4724 -76.5632 21.4053 21.0215 123.105 46.9763 6.72006 
-320.553 50.6384 352.206 -111.36 -53.7067 -130.592 155.302 33.5639 92.4479 -0.293601 37.9379 -0.0220063 3.06025 -18.0567 -25.6092 119.692 35.0241 53.5417 175.563 19.5535 51.8975 -121.929 -35.1859 -0.950621 106.949 -27.8367 -19.9581 72.2899 -9.41558 -8.42019 -3.0879 8.04334 -88.4607 10.8719 -5.43719 3.57124 -0.793264 -5.27485 3.80727 -23.4072 -6.25826 1.76778 -3.39456 -6.25825 1.76778 78.1187 -33.981 -127.096 51.9248 24.0749 61.6857 138.171 -42.9781 -55.5483 -4.31193 1.85068 -58.9981 -93.7109 -51.251 73.273 -35.826 -25.9186 8.59115 39.8686 32.0029 -49.5194 24.2975 -2.09665 -12.8191 -74.1356 17.9926 27.2386 123.738 42.6776 5.99462 
-317.571 54.691 348.355 -111.551 -53.0895 -132.18 157.194 32.6865 89.3328 0.274639 37.8792 0.0658503 1.90349 -19.3243 -25.7657 104.267 32.4379 62.574 178.82 26.7556 49.7507 -120.029 -25.188 -1.75492 104.025 -18.1608 -11.6745 72.3553 -7.26924 -1.09091 -3.6926 8.38927 -88.5044 10.2016 -6.67539 3.53617 -1.45783 -6.51338 3.82721 -24.1226 -7.42807 1.35753 -4.10996 -7.42807 1.35752 79.6664 -26.1742 -129.409 57.3466 24.4419 56.4442 136.308 -42.9681 -57.7688 -4.62032 2.00789 -59.0039 -88.9294 -52.5465 80.5667 -41.5107 -25.9136 12.5887 22.9351 30.816 -24.2154 6.89548 -0.0166838 -5.2546 -69.1167 16.0677 36.1438 124.75 36.7253 3.71889 
-311.614 61.4207 340.924 -111.42 -52.4783 -133.238 161.99 38.0994 84.9044 -15.0728 35.9459 -1.7451 9.99462 -20.4458 -18.3627 82.7161 20.8895 65.6495 -175.977 37.1616 47.8216 -113.337 -12.6659 -2.75895 92.93 -6.52287 -1.45329 69.4702 -4.20004 8.16086 -4.45647 8.84758 -88.4491 9.31445 -8.19155 3.6721 -2.3368 -8.02209 4.03064 -25.0748 -8.91379 1.02313 -5.06217 -8.91378 1.02312 82.7604 -15.6828 -131.344 64.867 24.6319 47.8233 136.029 -40.038 -59.291 -4.79823 2.14883 -60.1313 -83.6339 -50.479 88.1287 -50.1632 -27.7144 23.5094 16.3554 23.318 -9.90745 -1.12197 -0.229896 -9.51788 -61.0821 16.8364 46.575 124.759 28.903 0.519784 
-305.526 67.4603 333.082 -110.894 -51.8582 -133.666 171.189 53.5607 77.7936 -61.2779 33.8605 -6.21312 35.0724 -11.8209 -0.519129 55.0324 4.93463 52.847 -172.68 44.3155 47.4659 -103.929 -10.8961 -4.00944 78.7273 -2.10817 -0.384193 68.1164 -3.43533 10.9386 -5.21682 9.37186 -88.2852 8.29814 -9.65755 3.96688 -3.34406 -9.4737 4.39091 -26.1655 -10.3989 0.852181 -6.15289 -10.3989 0.852183 87.4996 -3.84337 -131.542 73.5684 24.6358 35.974 137.944 -33.03 -60.1688 -4.72071 2.26563 -63.6525 -79.4005 -48.4566 94.4573 -53.5246 -26.3484 21.1527 15.9297 18.8363 -10.8878 0.755633 -0.225953 -8.74947 -51.3955 18.1455 52.5888 119.22 25.6112 1.76435 
